<svg width="76" height="44" viewBox="0 0 76 44" fill="none" xmlns="http://www.w3.org/2000/svg">
<path d="M75.5 40.625C75.5 39.7962 75.1708 39.0013 74.5847 38.4153C73.9987 37.8292 73.2038 37.5 72.375 37.5H53.625C52.7962 37.5 52.0013 37.8292 51.4153 38.4153C50.8292 39.0013 50.5 39.7962 50.5 40.625C50.5 41.4538 50.8292 42.2487 51.4153 42.8347C52.0013 43.4208 52.7962 43.75 53.625 43.75H72.375C73.2038 43.75 73.9987 43.4208 74.5847 42.8347C75.1708 42.2487 75.5 41.4538 75.5 40.625ZM75.5 21.875C75.5 21.0462 75.1708 20.2513 74.5847 19.6653C73.9987 19.0792 73.2038 18.75 72.375 18.75H28.625C27.7962 18.75 27.0013 19.0792 26.4153 19.6653C25.8292 20.2513 25.5 21.0462 25.5 21.875C25.5 22.7038 25.8292 23.4987 26.4153 24.0847C27.0013 24.6708 27.7962 25 28.625 25H72.375C73.2038 25 73.9987 24.6708 74.5847 24.0847C75.1708 23.4987 75.5 22.7038 75.5 21.875ZM75.5 3.125C75.5 2.2962 75.1708 1.50134 74.5847 0.915292C73.9987 0.329241 73.2038 0 72.375 0H3.625C2.7962 0 2.00134 0.329241 1.41529 0.915292C0.829241 1.50134 0.5 2.2962 0.5 3.125C0.5 3.9538 0.829241 4.74866 1.41529 5.33471C2.00134 5.92076 2.7962 6.25 3.625 6.25H72.375C73.2038 6.25 73.9987 5.92076 74.5847 5.33471C75.1708 4.74866 75.5 3.9538 75.5 3.125Z" fill="black"/>
</svg>
