<svg id="visual" viewBox="0 0 900 600" width="900" height="600" xmlns="http://www.w3.org/2000/svg" xmlns:xlink="http://www.w3.org/1999/xlink" version="1.1"><path d="M597 600L599.5 588.8C602 577.7 607 555.3 616.7 533.2C626.3 511 640.7 489 611.3 466.8C582 444.7 509 422.3 517.8 400C526.7 377.7 617.3 355.3 662.5 333.2C707.7 311 707.3 289 708.2 266.8C709 244.7 711 222.3 675.3 200C639.7 177.7 566.3 155.3 542.3 133.2C518.3 111 543.7 89 533.7 66.8C523.7 44.7 478.3 22.3 455.7 11.2L433 0L900 0L900 11.2C900 22.3 900 44.7 900 66.8C900 89 900 111 900 133.2C900 155.3 900 177.7 900 200C900 222.3 900 244.7 900 266.8C900 289 900 311 900 333.2C900 355.3 900 377.7 900 400C900 422.3 900 444.7 900 466.8C900 489 900 511 900 533.2C900 555.3 900 577.7 900 588.8L900 600Z" fill="#b13933" stroke-linecap="round" stroke-linejoin="miter"></path></svg>